HIERARCHY
ROOT Hips
{
  OFFSET 0 0 0
  CHANNELS 6 Xposition Yposition Zposition Zrotation Yrotation Xrotation
  JOINT LeftThigh
  {
    OFFSET 8.409438 0 -5.917753
    CHANNELS 3 Zrotation Yrotation Xrotation
    JOINT LeftLeg
    {
      OFFSET 0 0 -42.358652
      CHANNELS 3 Zrotation Yrotation Xrotation
      JOINT LeftFoot
      {
        OFFSET 0 0 -39.357303
        CHANNELS 3 Zrotation Yrotation Xrotation
      }
    }
  }
  JOINT RightThigh
  {
    OFFSET -8.409438 0 -5.917753
    CHANNELS 3 Zrotation Yrotation Xrotation
    JOINT RightLeg
    {
      OFFSET 0 0 -42.358652
      CHANNELS 3 Zrotation Yrotation Xrotation
      JOINT RightFoot
      {
        OFFSET 0 0 -39.357303
        CHANNELS 3 Zrotation Yrotation Xrotation
      }
    }
  }
  JOINT SpineLow
  {
    OFFSET 0 0 4.719101
    CHANNELS 3 Zrotation Yrotation Xrotation
    JOINT SpineMid
    {
      OFFSET 0 0 12.899191
      CHANNELS 3 Zrotation Yrotation Xrotation
      JOINT Chest
      {
        OFFSET 0 0 12.899191
        CHANNELS 3 Zrotation Yrotation Xrotation
        JOINT LeftShoulder
        {
          OFFSET 7.550562 1.41573 9.438202
          CHANNELS 3 Zrotation Yrotation Xrotation
          JOINT LeftArm
          {
            OFFSET 9.155056 0 4.247191
            CHANNELS 3 Zrotation Yrotation Xrotation
            JOINT LeftForearm
            {
              OFFSET 0 0 25.771955
              CHANNELS 3 Zrotation Yrotation Xrotation
              JOINT LeftHand
              {
                OFFSET 0 0 25.197169
                CHANNELS 3 Zrotation Yrotation Xrotation
              }
            }
          }
        }
        JOINT RightShoulder
        {
          OFFSET -7.550562 1.41573 9.438202
          CHANNELS 3 Zrotation Yrotation Xrotation
          JOINT RightArm
          {
            OFFSET -9.155056 0 4.247191
            CHANNELS 3 Zrotation Yrotation Xrotation
            JOINT RightForearm
            {
              OFFSET 0 0 -25.771955
              CHANNELS 3 Zrotation Yrotation Xrotation
              JOINT RightHand
              {
                OFFSET 0 0 -25.197169
                CHANNELS 3 Zrotation Yrotation Xrotation
              }
            }
          }
        }
        JOINT Neck
        {
          OFFSET 0 0 15.101124
          CHANNELS 3 Zrotation Yrotation Xrotation
          JOINT Head
          {
            OFFSET 0 0 11.325843
            CHANNELS 3 Zrotation Yrotation Xrotation
            End Site
            {
              OFFSET 0 0 14.157303
            }
          }
        }
      }
    }
  }
}
MOTION
Frames: 11
Frame Time: 0.0
0.0  101.685394  0.0  2.537638  32.393015  -97.744029  -3.525636  -16.755047  -2.652852  -9.175666  16.007257  24.075116  0.35945  2.777879  2.833762  -21.788241  16.391562  2.954863  -8.625345  5.021945  16.890832  -6.74675  2.331612  -1.873195  -1.630848  1.452518  2.561114  -4.303295  4.135886  6.907134  -4.303295  4.135886  6.907134  -15.991095  21.815416  5.678476  92.125754  58.888447  172.327328  -25.849785  -22.970484  74.971024  63.389356  -12.403007  -9.008621  17.252033  -15.917476  12.905772  84.686782  40.307301  49.749475  -2.281977  29.705873  -42.595099  98.578231  11.222582  -11.914142  -4.436654  -4.647997  0.561333  -3.321389  -3.49029  0.386984  
0.0  101.685394  0.0  2.651082  33.224447  -97.644384  -4.091986  -16.58367  -2.916789  -9.307102  16.099463  24.062413  0.37417  2.797785  2.871891  -21.878441  16.517461  3.182491  -9.019253  5.028523  16.74842  -6.981248  2.304835  -1.905343  -1.66399  1.471132  2.552832  -4.392577  4.189565  6.881267  -4.392578  4.189565  6.881267  -15.973292  21.648159  5.479358  91.629084  58.362433  172.697866  -26.007729  -22.394904  75.587185  63.350492  -12.649477  -9.731151  18.283371  -16.066205  12.766964  84.89828  40.498525  50.169557  -1.388741  30.365315  -41.271187  98.956616  11.600169  -12.548126  -4.797314  -4.673885  0.614637  -3.591282  -3.510494  0.423991  
0.0  101.685394  0.0  2.71265  33.887302  -97.57161  -4.350269  -16.552331  -3.05448  -9.426849  16.200766  24.061213  0.219314  2.801641  2.826331  -21.921588  16.575457  3.37061  -9.356114  5.006218  16.622945  -7.147309  2.306239  -1.923589  -1.67544  1.480645  2.541983  -4.423648  4.215996  6.850289  -4.423648  4.215996  6.850288  -15.795438  21.5404  5.44831  91.018217  57.864614  173.180595  -26.003851  -21.886901  76.027367  63.304558  -12.77367  -10.523356  18.892607  -16.0902  12.546341  85.212737  40.606596  50.413322  -0.577359  30.852709  -40.172977  99.357965  11.996233  -13.285392  -5.025031  -4.722195  0.690904  -3.761294  -3.547611  0.479015  
0.0  101.685394  0.0  2.812765  34.672638  -97.403472  -4.903515  -16.397264  -3.405265  -9.623361  16.310733  24.043198  0.266463  2.848633  2.887942  -21.996646  16.652192  3.536922  -9.737388  4.979884  16.489652  -7.375536  2.268218  -1.962437  -1.711892  1.508897  2.514841  -4.522335  4.295013  6.771956  -4.522334  4.295012  6.771956  -15.687146  21.270857  5.523816  90.170458  57.46401  173.20081  -26.24896  -21.191507  76.552286  63.222894  -12.790343  -11.279888  19.680704  -16.284584  12.362337  85.097193  40.899539  50.520016  0.121196  31.211178  -39.325619  99.557911  12.50536  -14.036374  -5.390484  -4.816646  0.750788  -4.034556  -3.619441  0.520232  
0.0  101.685394  0.0  2.820477  35.210352  -97.333976  -5.089626  -16.392935  -3.567886  -9.811263  16.407074  24.055828  0.185733  2.853039  2.850475  -21.953179  16.618197  3.699049  -10.075859  4.984439  16.378872  -7.508481  2.258618  -1.980367  -1.71135  1.517048  2.477884  -4.522547  4.314738  6.670402  -4.522547  4.314738  6.670402  -15.561523  21.235797  5.696779  89.357418  57.011118  173.213202  -26.236021  -20.621503  76.946341  63.076738  -12.727694  -11.940509  20.013403  -16.398219  12.332466  85.147002  41.227  50.514135  0.72229  31.44546  -38.662298  99.611994  13.038368  -14.761937  -5.618107  -4.884039  0.893855  -4.203878  -3.671615  0.625051  
0.0  101.685394  0.0  2.86317  35.908672  -97.185214  -5.532589  -16.28865  -3.865002  -10.04503  16.530056  24.078651  0.28919  2.866661  2.878825  -22.043901  16.61204  3.795898  -10.548788  5.014416  16.257734  -7.58188  2.232302  -1.997711  -1.75112  1.539572  2.414617  -4.633441  4.375841  6.49327  -4.633441  4.375841  6.49327  -15.438777  21.097256  5.967675  88.217424  56.579546  172.70757  -26.47604  -19.966151  77.383592  62.937582  -12.58741  -12.420606  20.412837  -16.611191  12.47603  84.985602  41.723746  50.377013  1.224555  31.545859  -38.174341  99.534448  13.503764  -15.418941  -5.965422  -4.958246  1.059688  -4.46267  -3.729453  0.745846  
0.0  101.685394  0.0  2.795456  36.298828  -97.223283  -5.666251  -16.306338  -3.917311  -10.224804  16.56649  24.105619  0.254941  2.871508  2.817804  -21.878097  16.520977  4.001331  -10.911243  5.031288  16.177634  -7.655302  2.231358  -2.00731  -1.750485  1.549445  2.382183  -4.63301  4.400507  6.403973  -4.63301  4.400507  6.403973  -15.370113  21.043959  6.164676  87.332227  56.092671  172.421633  -26.421182  -19.56564  77.637681  62.787621  -12.429625  -12.578144  20.551161  -16.780268  12.531826  84.988962  42.208716  50.202728  1.650698  31.579655  -37.802266  99.38927  13.908864  -16.041961  -6.125416  -5.05169  1.220799  -4.580989  -3.801462  0.864357  
0.0  101.685394  0.0  2.774203  36.842723  -97.156845  -5.994087  -16.253322  -4.075168  -10.364651  16.604101  24.175841  0.252756  2.874099  2.758873  -21.871106  16.527279  4.121691  -11.292614  5.012603  16.111343  -7.772728  2.18584  -2.019935  -1.777928  1.569852  2.385894  -4.705936  4.459077  6.410965  -4.705936  4.459077  6.410964  -15.565435  20.806999  6.032413  86.035091  55.651971  171.565477  -26.652438  -19.194409  77.845525  62.612541  -12.295635  -12.358608  20.788935  -16.960475  12.346655  84.910861  42.796409  50.004419  2.026691  31.608881  -37.449482  99.230132  14.285057  -16.667028  -6.437783  -5.200461  1.185459  -4.814927  -3.913353  0.833674  
0.0  101.685394  0.0  2.651797  37.050398  -97.220852  -6.006787  -16.336271  -4.075834  -10.408366  16.549573  24.255432  0.08653  2.905438  2.649737  -21.670127  16.420667  4.267358  -11.569189  4.985598  16.073506  -7.814857  2.188572  -2.018502  -1.777551  1.564669  2.442103  -4.701488  4.448798  6.565089  -4.701488  4.448797  6.56509  -15.823177  20.613101  5.608954  85.142461  55.24064  171.003482  -26.536321  -19.060813  77.878623  62.469127  -12.228716  -11.905908  20.96641  -16.974892  11.880557  85.021612  43.334296  49.853884  2.391128  31.682057  -37.118197  99.126075  14.712211  -17.303026  -6.497362  -5.336796  1.022933  -4.860553  -4.014012  0.709852  
0.0  101.685394  0.0  2.625491  37.385564  -97.123342  -6.343653  -16.239593  -4.32751  -10.453376  16.491118  24.363336  0.098911  2.972335  2.622242  -21.643385  16.382139  4.282512  -11.834183  4.969887  16.03951  -7.911128  2.150115  -2.026017  -1.791317  1.570092  2.491914  -4.73516  4.468424  6.700068  -4.73516  4.468424  6.700068  -16.283743  20.347345  5.13554  83.924307  54.849878  170.048663  -26.663335  -18.964091  77.809637  62.41526  -12.213796  -11.389331  21.266775  -17.121167  11.419506  86.85301  42.878655  49.934552  1.708473  31.434056  -35.449501  99.086892  15.209639  -17.936057  -6.714081  -5.484008  0.801659  -5.024507  -4.1224  0.540447  
0.0  101.685394  0.0  2.493274  37.382001  -97.154887  -6.222019  -16.308583  -4.334504  -10.45704  16.346574  24.474571  -0.06614  3.031982  2.505594  -21.491858  16.254184  4.284823  -11.956125  4.949394  16.043197  -7.855694  2.144373  -2.014579  -1.776796  1.559985  2.519847  -4.69449  4.441327  6.778123  -4.694489  4.441327  6.778123  -16.62464  20.205263  4.871107  83.25223  54.468235  169.429507  -26.668729  -18.881673  77.758815  62.078008  -12.223245  -11.325144  21.310835  -17.271509  11.081377  86.140734  43.57338  49.071713  2.784397  31.995267  -34.88313  99.073527  15.800153  -18.595296  -6.717633  -5.567319  0.721926  -5.027666  -4.18402  0.479715  
